<mxfile host="app.diagrams.net" modified="2024-01-30T14:11:03.267Z" agent="Mozilla/5.0 (Macintosh; Intel Mac OS X 10_15_7) AppleWebKit/605.1.15 (KHTML, like Gecko) Version/17.1.2 Safari/605.1.15" version="23.0.2" etag="2A1o9YWKdw5sal1W0F7R" type="github">
  <diagram name="第 1 页" id="ch-lK_i6VbI5f8OU4tHl">
    <mxGraphModel>
      <root>
        <mxCell id="0" />
        <mxCell id="1" parent="0" />
      </root>
    </mxGraphModel>
  </diagram>
</mxfile>
